<svg width="676" height="204" viewBox="0 0 676 204" fill="none" xmlns="http://www.w3.org/2000/svg">
<path d="M548.889 66.048C548.821 66.116 548.787 66.354 548.787 66.762V67.374C548.787 68.598 549.076 69.873 549.654 71.2C550.232 72.526 550.997 73.733 551.949 74.821C552.901 75.91 554.041 76.794 555.366 77.474C556.693 78.154 558.07 78.494 559.497 78.494H567.658C568.475 78.494 569.631 78.205 571.127 77.627C572.623 77.049 574.187 76.284 575.819 75.331C577.452 74.379 578.999 73.308 580.461 72.117C581.923 70.928 583.028 69.754 583.777 68.598C584.593 67.577 585.035 66.83 585.103 66.353L585.613 65.333C585.681 64.994 585.732 64.738 585.765 64.568C585.8 64.399 585.816 64.348 585.816 64.416C586.021 63.328 586.123 62.172 586.123 60.948C586.123 59.859 585.987 58.772 585.715 57.683C585.443 56.595 584.95 55.626 584.236 54.776C583.522 53.926 582.536 53.246 581.277 52.737C580.019 52.227 578.37 51.971 576.329 51.971H566.435C565.142 51.971 563.731 52.261 562.201 52.839C560.67 53.417 559.175 54.181 557.712 55.134C556.25 56.086 554.889 57.157 553.631 58.348C552.373 59.538 551.37 60.711 550.622 61.867C550.145 62.684 549.755 63.448 549.448 64.163C549.144 64.875 548.958 65.504 548.889 66.048ZM609.077 62.988C608.329 67 606.731 70.775 604.283 74.311C601.835 77.847 598.808 80.942 595.204 83.594C591.599 86.246 587.536 88.354 583.013 89.918C578.491 91.482 573.815 92.264 568.986 92.264H556.745C552.256 92.264 548.091 91.958 544.248 91.346C540.406 90.733 537.091 89.696 534.302 88.234C531.513 86.771 529.338 84.783 527.773 82.267C526.209 79.75 525.427 76.587 525.427 72.78C525.427 71.963 525.461 71.113 525.529 70.229C525.597 69.345 525.699 68.427 525.835 67.476C526.515 63.667 528.045 59.995 530.426 56.458C532.806 52.921 535.73 49.809 539.198 47.124C542.667 44.437 546.526 42.278 550.777 40.646C555.028 39.013 559.296 38.198 563.58 38.198H579.698C589.559 38.198 597.058 39.609 602.192 42.432C607.327 45.254 609.894 49.93 609.894 56.459C609.894 57.479 609.826 58.533 609.69 59.622C609.553 60.709 609.349 61.832 609.077 62.988ZM467.686 92.266L485.335 51.971H462.178V51.868C462.246 51.597 462.841 50.848 463.962 49.625C465.085 48.4 466.411 47.04 467.942 45.544C469.472 44.048 471.036 42.602 472.634 41.209C474.232 39.815 475.575 38.812 476.664 38.2H537.974C537.43 39.152 536.495 40.394 535.168 41.923C533.842 43.453 532.415 44.967 530.884 46.462C529.354 47.959 527.875 49.251 526.447 50.34C525.019 51.428 523.965 51.972 523.284 51.972H508.9L491.252 92.267H467.686V92.266ZM375.671 60.845C374.922 63.158 374.26 65.197 373.681 66.966C373.103 68.733 372.61 70.502 372.202 72.271C371.794 74.243 371.59 75.909 371.59 77.269C371.59 79.99 372.066 82.302 373.018 84.206C373.97 86.111 375.602 87.657 377.914 88.848C380.227 90.039 383.27 90.905 387.045 91.449C390.82 91.994 395.563 92.266 401.276 92.266H415.66C420.488 92.266 424.67 91.636 428.208 90.379C431.744 89.12 434.856 87.267 437.542 84.819C440.228 82.371 442.625 79.361 444.734 75.79C446.841 72.22 448.916 68.088 450.957 63.395L461.974 38.198H438.716L425.556 68.496C424.943 69.448 424.162 70.503 423.209 71.659C422.257 72.815 421.118 73.903 419.791 74.923C418.465 75.944 416.969 76.794 415.303 77.474C413.637 78.154 411.817 78.494 409.845 78.494H403.826C401.581 78.494 399.763 77.831 398.368 76.504C396.974 75.178 396.276 73.326 396.276 70.945C396.276 70.128 396.481 69.04 396.888 67.68C396.888 67.477 396.956 67.119 397.091 66.609C397.228 66.099 397.67 64.892 398.417 62.988C399.165 61.083 400.322 58.21 401.886 54.367C403.45 50.525 405.66 45.135 408.517 38.198H385.36L375.671 60.845ZM317.115 77.576V78.596H342.006L337.721 54.623L317.115 77.576ZM366.285 92.266H344.556L342.006 80.738C341.87 81.147 341.292 81.929 340.272 83.085C339.251 84.241 338.095 85.465 336.803 86.757C335.512 88.05 334.253 89.239 333.029 90.328C331.805 91.416 330.921 92.062 330.376 92.266H278.553C278.69 91.586 278.757 91.348 278.757 91.551V91.245L322.827 44.32C323.099 43.911 323.592 43.367 324.306 42.687C325.021 42.008 325.82 41.344 326.704 40.697C327.588 40.051 328.455 39.473 329.305 38.963C330.155 38.453 330.852 38.198 331.396 38.198H352.003C352.887 38.198 353.653 38.572 354.298 39.32C354.945 40.067 355.522 40.986 356.032 42.074C356.542 43.163 356.984 44.301 357.358 45.491C357.732 46.681 358.021 47.684 358.224 48.501L366.285 92.266Z" fill="white"/>
<path fill-rule="evenodd" clip-rule="evenodd" d="M225.066 165.844H235.992L229.268 181.293H219.046L225.066 165.844ZM201.305 165.844H217.677L211.657 181.293H195.285L201.305 165.844ZM168.417 165.844H191.018L184.998 181.293H162.396L168.417 165.844ZM7.07455 165.844H156.247L150.226 181.293H0.351562L7.07455 165.844Z" fill="#2D5BFF"/>
<path fill-rule="evenodd" clip-rule="evenodd" d="M255.151 5.25695C249.559 8.51595 240.482 18.837 232.773 30.085C229.653 34.639 227.323 36.785 222.939 37.645C212.968 39.602 194.835 39.512 181.377 41.009C162.064 43.158 99.9852 56.471 87.8312 49.869C91.9562 49.282 94.5232 48.785 95.5322 48.377C111.592 36.041 125.048 27.149 135.901 21.704C162.858 8.17597 225.377 5.71295 255.151 5.25695ZM142.902 109.959C135.734 105.155 134.627 104.414 134.627 104.414C148.058 102.6 156.188 101.861 159.014 102.198C167.117 102.195 168.575 120.016 162.894 120.377C156.899 120.631 152.962 120.799 151.091 120.877C146.518 121.068 143.507 113.506 142.902 109.959ZM359.297 33.795C332.506 11.848 297.591 0.870958 263.528 0.511958C228.437 0.138958 171.984 4.47298 146.125 12.821C131.025 17.695 117.874 25.976 102.874 37.27C95.1082 43.117 92.5962 45.73 82.3052 48.033C67.5902 50.462 53.2542 53.602 39.2992 57.454C36.2582 58.338 33.2652 59.964 30.3202 62.331C41.8952 66.913 64.4502 66.784 97.9852 61.946C144.138 53.938 172.145 50.538 182.007 51.749C184.195 52.791 185.044 54.047 184.557 55.517C176.11 63.101 165.284 68.977 152.078 73.142C149.841 73.624 147.144 73.402 143.986 72.476C116.055 71.402 86.6292 87.419 57.2992 85.973C41.1102 85.175 32.1212 80.707 20.0592 81.014C18.8772 79.314 18.2862 78.464 18.2862 78.464C10.4892 84.8969 7.97724 97.9779 10.7482 117.704C11.8522 108.004 13.6212 101.188 16.0562 97.258C18.5652 93.21 21.1422 93.0129 25.7122 93.7609C47.9662 96.5579 76.2692 94.932 110.621 88.883C114.206 88.283 116.939 88.912 118.821 90.768C129.566 109.315 137.988 120.811 144.084 125.255C146.642 127.118 149.861 127.78 153.018 127.593C169.976 126.582 177.79 125.466 177.79 125.466C180.276 125.219 181.68 124.184 182.002 122.362C189.403 87.326 201.892 70.607 219.467 72.206C237.735 76.487 246.676 94.8139 246.291 127.186C248.718 91.2959 235.864 64.061 216.579 64.373C209.453 64.489 200.244 67.394 192.864 79.743C200.723 65.051 212.879 58.436 229.221 63.67C232.501 60.63 238.59 58.581 242.897 58.432C242.501 56.439 241.715 54.789 240.538 53.482C242.519 54.104 244.036 55.278 245.088 57C245.339 57.412 246.675 62.623 249.312 90.7L249.072 58.218L299.719 56.464C305.779 50.847 308.809 48.04 308.809 48.04C262.253 49.37 238.976 50.035 238.976 50.035C236.442 49.315 235.63 47.468 236.538 44.492C247.121 20.761 257.539 8.19895 267.794 6.80395C299.511 2.60695 336.619 20.854 359.297 33.795Z" fill="#E73B27"/>
<path fill-rule="evenodd" clip-rule="evenodd" d="M37.2256 67.7739C36.5316 71.0049 36.1996 74.9769 36.2276 79.6909C31.8936 78.5599 27.9576 77.7839 24.4216 77.3629C24.4216 77.3629 24.4956 76.3649 24.6436 74.3699C24.6436 74.3699 22.9626 74.9059 19.6016 75.9779C22.6736 70.2539 25.5566 66.4489 28.2476 64.5599C30.7166 65.7159 33.7096 66.7869 37.2256 67.7739Z" fill="white"/>
<path fill-rule="evenodd" clip-rule="evenodd" d="M144.91 68.4719C146.624 69.4539 148.565 69.7269 150.038 69.1889C152.546 64.2429 156.204 60.5119 161.012 57.9939C161.012 57.9939 158.702 61.5779 154.083 68.7439C164.741 64.6679 173.138 60.2979 179.273 55.6349C178.995 54.8939 178.641 54.6309 176.723 54.6659C158.14 55.8419 137.153 58.5839 121.741 62.1749C118.155 63.2739 113.417 68.1379 110.797 73.0439C127.428 69.1089 139.907 68.5269 144.91 68.4719Z" fill="white"/>
<path fill-rule="evenodd" clip-rule="evenodd" d="M108.471 68.276C106.845 70.197 106.033 71.158 106.033 71.158C80.8681 76.769 59.0311 78.32 40.5211 75.813C40.5211 75.813 40.0411 75.037 39.0801 73.486C57.2231 76.214 80.3541 74.477 108.471 68.276Z" fill="#E73B27"/>
<path fill-rule="evenodd" clip-rule="evenodd" d="M341.511 31.3669C346.682 31.6619 349.268 31.8089 349.268 31.8089C309.988 12.7389 289.668 8.81296 274.118 8.98896C260.185 9.14696 253.994 19.897 246.787 31.2C257.783 15.987 266.005 10.8309 284.334 13.1209C287.707 18.4519 290.422 27.9039 293.847 43.7809C292.704 32.6419 291.475 22.6279 289.456 14.1579C306.818 17.1209 323.328 22.6539 341.511 31.3669Z" fill="white"/>
<path fill-rule="evenodd" clip-rule="evenodd" d="M258.486 36.909C249.952 41.252 246.368 42.176 247.734 39.681C248.838 32.87 250.944 29.36 254.052 29.15C270.249 28.707 279.08 30.444 280.545 34.36C281.289 37.195 281.141 39.892 280.101 42.451C279.958 38.854 279.293 36.6741 278.106 35.9111C265.025 36.5761 258.486 36.909 258.486 36.909Z" fill="#E73B27"/>
<path fill-rule="evenodd" clip-rule="evenodd" d="M134.339 129.687C138.539 131.996 139.427 133.29 136.999 133.567C93.4212 136.747 53.2212 137.633 16.3982 136.227C13.3832 135.72 14.1962 133.872 18.8372 130.684C18.9842 131.867 19.0572 132.458 19.0572 132.458C49.5922 133.208 88.0192 132.284 134.339 129.687Z" fill="#E73B27"/>
<path fill-rule="evenodd" clip-rule="evenodd" d="M214.038 87.793C223.65 87.793 231.441 102.007 231.441 119.542C231.441 137.076 223.65 151.293 214.038 151.293C204.426 151.293 196.635 137.076 196.635 119.542C196.635 102.007 204.426 87.793 214.038 87.793ZM215.145 82.132C226.471 82.132 235.651 98.882 235.651 119.544C235.651 140.206 226.471 156.956 215.145 156.956C203.82 156.956 194.639 140.206 194.639 119.544C194.639 98.882 203.82 82.132 215.145 82.132Z" fill="white"/>
<path fill-rule="evenodd" clip-rule="evenodd" d="M110.152 106.224C112.759 107.997 117.173 110.955 121.68 116.977C117.564 108.897 113.346 102.89 109.055 98.759C108.157 101.552 107.296 103.291 105.828 105.892C84.2611 107.19 57.7671 107.781 26.3501 107.666C25.9331 107.567 24.4551 105.719 21.9161 102.123C19.8361 107.793 18.7651 113.926 18.7031 120.524C21.2161 112.986 22.4721 109.217 22.4721 109.217C24.4671 110.991 25.4641 111.877 25.4641 111.877C64.7041 111.323 93.9591 110.751 108.726 109.687C109.207 108.429 109.624 107.32 110.152 106.224Z" fill="white"/>
<path d="M276.08 110H333.94C344.427 110 353.483 113.74 361.11 121.22C368.663 128.773 372.44 137.83 372.44 148.39C372.44 159.097 368.663 168.227 361.11 175.78C353.557 183.26 344.5 187 333.94 187H276.08V110ZM321.18 180.62C325.36 180.62 328.367 179.263 330.2 176.55C331.96 173.91 333.06 170.17 333.5 165.33C333.867 162.177 334.05 156.53 334.05 148.39C334.05 142.083 333.83 136.07 333.39 130.35C332.95 126.023 331.85 122.723 330.09 120.45C328.257 117.737 325.287 116.38 321.18 116.38H314.58V180.62H321.18ZM377.809 110H457.779V116.49H416.529V144.98H436.769V151.58H416.529V180.4H457.779V187H377.809V110ZM464.068 110H502.678V180.4H544.478V187H464.068V110ZM550.758 110H630.618V116.49H589.368V144.98H609.608V151.58H589.368V187H550.758V110ZM636.91 110H672.77V187H636.91V110Z" fill="#2D5BFF"/>
</svg>
